<?xml version="1.0" encoding="UTF-8" standalone="no"?>
<svg viewBox="0 0 800 800" xmlns="http://www.w3.org/2000/svg">
    <rect x="50" y="50" width="700" height="700" rx="10" fill="#f8f9fa" stroke="#ddd" stroke-width="2"/>
    
    <!-- Dashboard Header -->
    <rect x="100" y="80" width="600" height="70" rx="5" fill="#3a6ea5"/>
    <text x="400" y="125" font-family="Arial" font-size="24" text-anchor="middle" fill="#fff">Behavior Analytics Dashboard</text>
    
    <!-- Left Panel - Navigation -->
    <rect x="100" y="170" width="150" height="550" rx="5" fill="#fff" stroke="#ddd" stroke-width="2"/>
    
    <rect x="110" y="190" width="130" height="40" rx="5" fill="#3a6ea5"/>
    <text x="175" y="215" font-family="Arial" font-size="14" text-anchor="middle" fill="#fff">Overview</text>
    
    <rect x="110" y="240" width="130" height="40" rx="5" fill="#f0f2f5"/>
    <text x="175" y="265" font-family="Arial" font-size="14" text-anchor="middle" fill="#666">Blog Performance</text>
    
    <rect x="110" y="290" width="130" height="40" rx="5" fill="#f0f2f5"/>
    <text x="175" y="315" font-family="Arial" font-size="14" text-anchor="middle" fill="#666">CTA Analytics</text>
    
    <rect x="110" y="340" width="130" height="40" rx="5" fill="#f0f2f5"/>
    <text x="175" y="365" font-family="Arial" font-size="14" text-anchor="middle" fill="#666">Message Analytics</text>
    
    <rect x="110" y="390" width="130" height="40" rx="5" fill="#f0f2f5"/>
    <text x="175" y="415" font-family="Arial" font-size="14" text-anchor="middle" fill="#666">Gift Conversions</text>
    
    <rect x="110" y="440" width="130" height="40" rx="5" fill="#f0f2f5"/>
    <text x="175" y="465" font-family="Arial" font-size="14" text-anchor="middle" fill="#666">Sentiment Analysis</text>
    
    <!-- Right Panel - Content -->
    <rect x="270" y="170" width="430" height="550" rx="5" fill="#fff" stroke="#ddd" stroke-width="2"/>
    
    <!-- Summary Cards -->
    <rect x="290" y="190" width="190" height="120" rx="5" fill="#fff" stroke="#3a6ea5" stroke-width="2"/>
    <text x="385" y="215" font-family="Arial" font-size="14" text-anchor="middle" fill="#3a6ea5" font-weight="bold">Top Performing Blog</text>
    <text x="385" y="240" font-family="Arial" font-size="12" text-anchor="middle" fill="#666">"How to say I'm sorry..."</text>
    <text x="385" y="265" font-family="Arial" font-size="18" text-anchor="middle" fill="#333" font-weight="bold">32% CTR</text>
    <rect x="320" y="280" width="130" height="10" rx="5" fill="#f0f2f5"/>
    <rect x="320" y="280" width="110" height="10" rx="5" fill="#3a6ea5"/>
    
    <rect x="490" y="190" width="190" height="120" rx="5" fill="#fff" stroke="#f47c48" stroke-width="2"/>
    <text x="585" y="215" font-family="Arial" font-size="14" text-anchor="middle" fill="#f47c48" font-weight="bold">Highest Converting CTA</text>
    <text x="585" y="240" font-family="Arial" font-size="12" text-anchor="middle" fill="#666">"Mend the rift"</text>
    <text x="585" y="265" font-family="Arial" font-size="18" text-anchor="middle" fill="#333" font-weight="bold">24% Conv.</text>
    <rect x="520" y="280" width="130" height="10" rx="5" fill="#f0f2f5"/>
    <rect x="520" y="280" width="90" height="10" rx="5" fill="#f47c48"/>
    
    <!-- Main Chart -->
    <rect x="290" y="330" width="390" height="220" rx="5" fill="#fff" stroke="#ddd" stroke-width="2"/>
    <text x="485" y="355" font-family="Arial" font-size="16" text-anchor="middle" fill="#333" font-weight="bold">Emotional Trigger Effectiveness</text>
    
    <!-- Chart content -->
    <line x1="320" y1="500" x2="650" y2="500" stroke="#333" stroke-width="2"/>
    <line x1="320" y1="500" x2="320" y2="380" stroke="#333" stroke-width="2"/>
    
    <!-- Chart data lines -->
    <path d="M 320 480 L 370 450 L 420 470 L 470 420 L 520 390 L 570 410 L 620 430" stroke="#3a6ea5" stroke-width="3" fill="none"/>
    <path d="M 320 490 L 370 480 L 420 470 L 470 440 L 520 430 L 570 450 L 620 460" stroke="#f47c48" stroke-width="3" fill="none"/>
    
    <!-- Data points -->
    <circle cx="370" cy="450" r="5" fill="#3a6ea5"/>
    <circle cx="420" cy="470" r="5" fill="#3a6ea5"/>
    <circle cx="470" cy="420" r="5" fill="#3a6ea5"/>
    <circle cx="520" cy="390" r="5" fill="#3a6ea5"/>
    <circle cx="570" cy="410" r="5" fill="#3a6ea5"/>
    <circle cx="620" cy="430" r="5" fill="#3a6ea5"/>
    
    <circle cx="370" cy="480" r="5" fill="#f47c48"/>
    <circle cx="420" cy="470" r="5" fill="#f47c48"/>
    <circle cx="470" cy="440" r="5" fill="#f47c48"/>
    <circle cx="520" cy="430" r="5" fill="#f47c48"/>
    <circle cx="570" cy="450" r="5" fill="#f47c48"/>
    <circle cx="620" cy="460" r="5" fill="#f47c48"/>
    
    <!-- Legend -->
    <rect x="370" y="530" width="15" height="15" fill="#3a6ea5"/>
    <text x="395" y="543" font-family="Arial" font-size="12" fill="#666">Click Rate</text>
    
    <rect x="470" y="530" width="15" height="15" fill="#f47c48"/>
    <text x="495" y="543" font-family="Arial" font-size="12" fill="#666">Conversion Rate</text>
    
    <!-- Suggestions Panel -->
    <rect x="290" y="570" width="390" height="130" rx="5" fill="#fff0e9" stroke="#f47c48" stroke-width="2"/>
    <text x="485" y="595" font-family="Arial" font-size="16" text-anchor="middle" fill="#333" font-weight="bold">Content Optimization Suggestions</text>
    
    <text x="310" y="625" font-family="Arial" font-size="14" fill="#333">1. Focus on "missing someone" theme - highest engagement</text>
    <text x="310" y="655" font-family="Arial" font-size="14" fill="#333">2. Include personal stories in apology content</text>
    <text x="310" y="685" font-family="Arial" font-size="14" fill="#333">3. Test more emotive language in "gifting" CTAs</text>
</svg>