<?xml version="1.0" encoding="UTF-8" standalone="no"?>
<svg viewBox="0 0 800 400" xmlns="http://www.w3.org/2000/svg">
    <defs>
        <marker id="arrowhead5" markerWidth="10" markerHeight="7" refX="9" refY="3.5" orient="auto">
            <polygon points="0 0, 10 3.5, 0 7" fill="#333"/>
        </marker>
    </defs>
    <rect x="50" y="50" width="700" height="300" rx="10" fill="#f8f9fa" stroke="#ddd" stroke-width="2"/>
    
    <!-- Header -->
    <text x="400" y="90" font-family="Arial" font-size="24" text-anchor="middle" fill="#3a6ea5">Content Strategy Flow</text>
    
    <!-- Process flow -->
    <rect x="100" y="130" width="150" height="70" rx="8" fill="#ffffff" stroke="#3a6ea5" stroke-width="2"/>
    <text x="175" y="175" font-family="Arial" font-size="14" text-anchor="middle" fill="#333">SEO Research</text>
    
    <rect x="325" y="130" width="150" height="70" rx="8" fill="#ffffff" stroke="#3a6ea5" stroke-width="2"/>
    <text x="400" y="175" font-family="Arial" font-size="14" text-anchor="middle" fill="#333">Emotional Trigger Mapping</text>
    
    <rect x="550" y="130" width="150" height="70" rx="8" fill="#ffffff" stroke="#3a6ea5" stroke-width="2"/>
    <text x="625" y="175" font-family="Arial" font-size="14" text-anchor="middle" fill="#333">Blog Content Creation</text>
    
    <rect x="325" y="250" width="150" height="70" rx="8" fill="#ffffff" stroke="#f47c48" stroke-width="2"/>
    <text x="400" y="295" font-family="Arial" font-size="14" text-anchor="middle" fill="#333">CTA Integration</text>
    
    <!-- Arrows -->
    <path d="M 250 165 L 325 165" stroke="#333" stroke-width="2" fill="none" marker-end="url(#arrowhead5)"/>
    <path d="M 475 165 L 550 165" stroke="#333" stroke-width="2" fill="none" marker-end="url(#arrowhead5)"/>
    <path d="M 625 200 L 625 285 L 475 285" stroke="#333" stroke-width="2" fill="none" marker-end="url(#arrowhead5)"/>
    <path d="M 325 285 L 175 285 L 175 200" stroke="#333" stroke-width="2" fill="none" marker-end="url(#arrowhead5)"/>
</svg>