<?xml version="1.0" encoding="UTF-8" standalone="no"?>
<svg viewBox="0 0 800 500" xmlns="http://www.w3.org/2000/svg">
    <defs>
        <marker id="arrowhead9" markerWidth="10" markerHeight="7" refX="9" refY="3.5" orient="auto">
            <polygon points="0 0, 10 3.5, 0 7" fill="#333"/>
        </marker>
    </defs>
    <rect x="50" y="50" width="700" height="400" rx="10" fill="#f8f9fa" stroke="#ddd" stroke-width="2"/>
    
    <!-- Header -->
    <text x="400" y="90" font-family="Arial" font-size="24" text-anchor="middle" fill="#3a6ea5">Behavior Loop Feedback Integration</text>
    
    <!-- Circular feedback loop -->
    <circle cx="400" cy="250" r="150" fill="none" stroke="#ddd" stroke-width="2" stroke-dasharray="5,5"/>
    
    <!-- Loop elements -->
    <rect x="350" y="100" width="100" height="50" rx="25" fill="#fff" stroke="#3a6ea5" stroke-width="2"/>
    <text x="400" y="130" font-family="Arial" font-size="14" text-anchor="middle" fill="#333">Blog Content</text>
    
    <rect x="550" y="200" width="100" height="50" rx="25" fill="#fff" stroke="#f47c48" stroke-width="2"/>
    <text x="600" y="230" font-family="Arial" font-size="14" text-anchor="middle" fill="#333">CTA Clicks</text>
    
    <rect x="450" y="350" width="100" height="50" rx="25" fill="#fff" stroke="#6c5ce7" stroke-width="2"/>
    <text x="500" y="380" font-family="Arial" font-size="14" text-anchor="middle" fill="#333">Conversions</text>
    
    <rect x="250" y="350" width="100" height="50" rx="25" fill="#fff" stroke="#4ecdc4" stroke-width="2"/>
    <text x="300" y="380" font-family="Arial" font-size="14" text-anchor="middle" fill="#333">Analytics</text>
    
    <rect x="150" y="200" width="100" height="50" rx="25" fill="#fff" stroke="#ff6b6b" stroke-width="2"/>
    <text x="200" y="230" font-family="Arial" font-size="14" text-anchor="middle" fill="#333">Content Opt.</text>
    
    <!-- Connecting arrows -->
    <path d="M 435 145 L 560 200" stroke="#333" stroke-width="2" fill="none" marker-end="url(#arrowhead9)"/>
    <path d="M 600 250 L 535 350" stroke="#333" stroke-width="2" fill="none" marker-end="url(#arrowhead9)"/>
    <path d="M 450 375 L 350 375" stroke="#333" stroke-width="2" fill="none" marker-end="url(#arrowhead9)"/>
    <path d="M 265 350 L 200 250" stroke="#333" stroke-width="2" fill="none" marker-end="url(#arrowhead9)"/>
    <path d="M 235 200 L 350 145" stroke="#333" stroke-width="2" fill="none" marker-end="url(#arrowhead9)"/>
    
    <!-- Central element -->
    <circle cx="400" cy="250" r="40" fill="#fff" stroke="#3a6ea5" stroke-width="2"/>
    <text x="400" y="245" font-family="Arial" font-size="12" text-anchor="middle" fill="#333">Emotional</text>
    <text x="400" y="260" font-family="Arial" font-size="12" text-anchor="middle" fill="#333">Triggers</text>
    
    <!-- Data flow indicators -->
    <path d="M 400 210 C 380 200, 350 220, 340 240" stroke="#f47c48" stroke-width="2" fill="none" stroke-dasharray="3,3"/>
    <path d="M 440 240 C 460 230, 480 240, 490 260" stroke="#f47c48" stroke-width="2" fill="none" stroke-dasharray="3,3"/>
    <path d="M 415 285 C 420 300, 410 320, 390 330" stroke="#f47c48" stroke-width="2" fill="none" stroke-dasharray="3,3"/>
    <path d="M 370 280 C 350 290, 330 280, 320 260" stroke="#f47c48" stroke-width="2" fill="none" stroke-dasharray="3,3"/>
</svg>