<?xml version="1.0" encoding="UTF-8" standalone="no"?>
<svg viewBox="0 0 300 400" xmlns="http://www.w3.org/2000/svg">
    <rect x="25" y="25" width="250" height="350" rx="10" fill="#f8f9fa" stroke="#ddd" stroke-width="2"/>
    
    <!-- Title -->
    <text x="150" y="60" font-family="Arial" font-size="16" text-anchor="middle" fill="#3a6ea5" font-weight="bold">Implementation Strategy</text>
    
    <!-- Implementation timeline -->
    <line x1="75" y1="100" x2="75" y2="350" stroke="#ddd" stroke-width="2"/>
    <circle cx="75" cy="120" r="10" fill="#3a6ea5"/>
    <circle cx="75" cy="180" r="10" fill="#f47c48"/>
    <circle cx="75" cy="240" r="10" fill="#6c5ce7"/>
    <circle cx="75" cy="300" r="10" fill="#4ecdc4"/>
    
    <!-- Timeline labels -->
    <rect x="95" y="105" width="150" height="30" rx="5" fill="#fff" stroke="#3a6ea5" stroke-width="2"/>
    <text x="170" y="125" font-family="Arial" font-size="12" text-anchor="middle" fill="#333">Data Collection</text>
    <text x="170" y="140" font-family="Arial" font-size="10" text-anchor="middle" fill="#666">Week 1-2</text>
    
    <rect x="95" y="165" width="150" height="30" rx="5" fill="#fff" stroke="#f47c48" stroke-width="2"/>
    <text x="170" y="185" font-family="Arial" font-size="12" text-anchor="middle" fill="#333">Pattern Identification</text>
    <text x="170" y="200" font-family="Arial" font-size="10" text-anchor="middle" fill="#666">Week 3-4</text>
    
    <rect x="95" y="225" width="150" height="30" rx="5" fill="#fff" stroke="#6c5ce7" stroke-width="2"/>
    <text x="170" y="245" font-family="Arial" font-size="12" text-anchor="middle" fill="#333">Content Refinement</text>
    <text x="170" y="260" font-family="Arial" font-size="10" text-anchor="middle" fill="#666">Week 5-6</text>
    
    <rect x="95" y="285" width="150" height="30" rx="5" fill="#fff" stroke="#4ecdc4" stroke-width="2"/>
    <text x="170" y="305" font-family="Arial" font-size="12" text-anchor="middle" fill="#333">Continuous Loop</text>
    <text x="170" y="320" font-family="Arial" font-size="10" text-anchor="middle" fill="#666">Ongoing</text>
    
    <!-- Connecting lines -->
    <line x1="75" y1="120" x2="95" y2="120" stroke="#3a6ea5" stroke-width="2"/>
    <line x1="75" y1="180" x2="95" y2="180" stroke="#f47c48" stroke-width="2"/>
    <line x1="75" y1="240" x2="95" y2="240" stroke="#6c5ce7" stroke-width="2"/>
    <line x1="75" y1="300" x2="95" y2="300" stroke="#4ecdc4" stroke-width="2"/>
</svg>