<?xml version="1.0" encoding="UTF-8" standalone="no"?>
<svg viewBox="0 0 400 500" xmlns="http://www.w3.org/2000/svg">
    <rect x="10" y="10" width="380" height="480" rx="10" fill="#f8f9fa" stroke="#ddd" stroke-width="2"/>
    
    <!-- Title -->
    <text x="200" y="40" font-family="Arial" font-size="18" text-anchor="middle" fill="#3a6ea5" font-weight="bold">Interface Prototype</text>
    
    <!-- Desktop mockup -->
    <rect x="30" y="60" width="340" height="200" rx="5" fill="#fff" stroke="#ddd" stroke-width="2"/>
    
    <!-- Browser chrome -->
    <rect x="30" y="60" width="340" height="25" rx="5 5 0 0" fill="#f0f0f0"/>
    <circle cx="45" cy="72" r="5" fill="#ff6b6b"/>
    <circle cx="60" cy="72" r="5" fill="#ffe66d"/>
    <circle cx="75" cy="72" r="5" fill="#4ecdc4"/>
    
    <!-- Page content -->
    <text x="200" y="105" font-family="Arial" font-size="14" text-anchor="middle" fill="#333" font-weight="bold">Blog Article Title</text>
    
    <line x1="50" y1="125" x2="350" y2="125" stroke="#eee" stroke-width="2"/>
    <line x1="50" y1="145" x2="350" y2="145" stroke="#eee" stroke-width="2"/>
    <line x1="50" y1="165" x2="350" y2="165" stroke="#eee" stroke-width="2"/>
    <line x1="50" y1="185" x2="200" y2="185" stroke="#eee" stroke-width="2"/>
    
    <!-- CTA Card -->
    <rect x="70" y="205" width="260" height="40" rx="5" fill="#fff0e9" stroke="#f47c48" stroke-width="2"/>
    <text x="200" y="230" font-family="Arial" font-size="14" text-anchor="middle" fill="#333">Express your feelings with a gift →</text>
    
    <!-- Mobile mockup -->
    <rect x="30" y="280" width="160" height="200" rx="20" fill="#333" stroke="#222" stroke-width="3"/>
    <rect x="40" y="290" width="140" height="180" rx="10" fill="#fff"/>
    
    <!-- Blog content -->
    <text x="110" y="310" font-family="Arial" font-size="10" text-anchor="middle" fill="#333" font-weight="bold">Article</text>
    <line x1="50" y1="325" x2="170" y2="325" stroke="#eee" stroke-width="1"/>
    <line x1="50" y1="340" x2="170" y2="340" stroke="#eee" stroke-width="1"/>
    <line x1="50" y1="355" x2="170" y2="355" stroke="#eee" stroke-width="1"/>
    
    <!-- Floating CTA -->
    <rect x="50" y="370" width="120" height="90" rx="5" fill="#fff0e9" stroke="#f47c48" stroke-width="2"/>
    <text x="110" y="390" font-family="Arial" font-size="10" text-anchor="middle" fill="#333" font-weight="bold">Express Yourself</text>
    <rect x="60" y="400" width="100" height="30" rx="5" fill="#fff" stroke="#ddd" stroke-width="1"/>
    <rect x="70" y="440" width="80" height="15" rx="7.5" fill="#f47c48"/>
    <text x="110" y="452" font-family="Arial" font-size="10" text-anchor="middle" fill="#fff">Send</text>
    
    <!-- Tablet mockup -->
    <rect x="210" y="280" width="160" height="200" rx="10" fill="#f0f0f0" stroke="#ddd" stroke-width="2"/>
    <rect x="220" y="290" width="140" height="180" rx="5" fill="#fff"/>
    
    <!-- Tablet content -->
    <text x="290" y="310" font-family="Arial" font-size="12" text-anchor="middle" fill="#333" font-weight="bold">Blog Post</text>
    <line x1="230" y1="325" x2="350" y2="325" stroke="#eee" stroke-width="1"/>
    <line x1="230" y1="340" x2="350" y2="340" stroke="#eee" stroke-width="1"/>
    <line x1="230" y1="355" x2="350" y2="355" stroke="#eee" stroke-width="1"/>
    
    <!-- Side CTA -->
    <rect x="300" y="370" width="50" height="90" rx="5" fill="#fff0e9" stroke="#f47c48" stroke-width="2"/>
    <text x="325" y="405" font-family="Arial" font-size="10" text-anchor="middle" fill="#333" transform="rotate(-90 325,405)">Express With Gift</text>
    <circle cx="325" cy="430" r="15" fill="#f47c48"/>
    <text x="325" y="435" font-family="Arial" font-size="16" text-anchor="middle" fill="#fff">+</text>
</svg>