<?xml version="1.0" encoding="UTF-8" standalone="no"?>
<svg viewBox="0 0 800 500" xmlns="http://www.w3.org/2000/svg">
    <defs>
        <marker id="arrowhead2" markerWidth="10" markerHeight="7" refX="9" refY="3.5" orient="auto">
            <polygon points="0 0, 10 3.5, 0 7" fill="#333"/>
        </marker>
    </defs>
    <rect x="50" y="50" width="700" height="400" rx="10" fill="#f8f9fa" stroke="#ddd" stroke-width="2"/>
    
    <!-- Header section -->
    <rect x="100" y="100" width="600" height="80" rx="5" fill="#ffffff" stroke="#3a6ea5" stroke-width="2"/>
    <text x="400" y="145" font-family="Arial" font-size="20" text-anchor="middle" fill="#3a6ea5">Message CTA Implementation</text>
    
    <!-- Blog Content Section -->
    <rect x="100" y="200" width="275" height="200" rx="5" fill="#ffffff" stroke="#ddd" stroke-width="2"/>
    <text x="237.5" y="225" font-family="Arial" font-size="16" text-anchor="middle" fill="#333">Blog Content</text>
    <line x1="120" y1="245" x2="355" y2="245" stroke="#eee" stroke-width="2"/>
    <line x1="120" y1="275" x2="355" y2="275" stroke="#eee" stroke-width="2"/>
    <line x1="120" y1="305" x2="355" y2="305" stroke="#eee" stroke-width="2"/>
    <line x1="120" y1="335" x2="355" y2="335" stroke="#eee" stroke-width="2"/>
    <line x1="120" y1="365" x2="355" y2="365" stroke="#eee" stroke-width="2"/>
    
    <!-- CTA Card Section -->
    <rect x="425" y="200" width="275" height="200" rx="5" fill="#fff0e9" stroke="#f47c48" stroke-width="2"/>
    <text x="562.5" y="225" font-family="Arial" font-size="16" text-anchor="middle" fill="#333">Embedded CTA Card</text>
    <rect x="445" y="245" width="235" height="40" rx="5" fill="white" stroke="#ddd" stroke-width="1"/>
    <text x="562.5" y="270" font-family="Arial" font-size="12" text-anchor="middle" fill="#666">What to say when you miss someone</text>
    
    <rect x="445" y="295" width="235" height="60" rx="5" fill="white" stroke="#ddd" stroke-width="1"/>
    <text x="562.5" y="325" font-family="Arial" font-size="12" text-anchor="middle" fill="#666">Preview message template...</text>
    
    <rect x="495" y="365" width="135" height="35" rx="17.5" fill="#f47c48" stroke="none"/>
    <text x="562.5" y="387" font-family="Arial" font-size="14" text-anchor="middle" fill="white">Send Gift + Message</text>
    
    <!-- Arrow -->
    <path d="M 350 300 L 425 300" stroke="#333" stroke-width="2" fill="none" marker-end="url(#arrowhead2)"/>
</svg>