<?xml version="1.0" encoding="UTF-8" standalone="no"?>
<svg viewBox="0 0 300 400" xmlns="http://www.w3.org/2000/svg">
    <defs>
        <marker id="arrowhead10" markerWidth="10" markerHeight="7" refX="9" refY="3.5" orient="auto">
            <polygon points="0 0, 10 3.5, 0 7" fill="#333"/>
        </marker>
    </defs>
    <rect x="25" y="25" width="250" height="350" rx="10" fill="#f8f9fa" stroke="#ddd" stroke-width="2"/>
    
    <!-- Title -->
    <text x="150" y="60" font-family="Arial" font-size="16" text-anchor="middle" fill="#3a6ea5" font-weight="bold">Content Optimization Process</text>
    
    <!-- Process flow -->
    <rect x="75" y="80" width="150" height="40" rx="5" fill="#fff" stroke="#3a6ea5" stroke-width="2"/>
    <text x="150" y="105" font-family="Arial" font-size="12" text-anchor="middle" fill="#333">Blog Content</text>
    
    <path d="M 150 120 L 150 140" stroke="#333" stroke-width="2" fill="none" marker-end="url(#arrowhead10)"/>
    
    <rect x="75" y="140" width="150" height="40" rx="5" fill="#fff" stroke="#f47c48" stroke-width="2"/>
    <text x="150" y="165" font-family="Arial" font-size="12" text-anchor="middle" fill="#333">User Interaction Data</text>
    
    <path d="M 150 180 L 150 200" stroke="#333" stroke-width="2" fill="none" marker-end="url(#arrowhead10)"/>
    
    <rect x="75" y="200" width="150" height="40" rx="5" fill="#fff" stroke="#6c5ce7" stroke-width="2"/>
    <text x="150" y="225" font-family="Arial" font-size="12" text-anchor="middle" fill="#333">Pattern Analysis</text>
    
    <path d="M 150 240 L 150 260" stroke="#333" stroke-width="2" fill="none" marker-end="url(#arrowhead10)"/>
    
    <rect x="75" y="260" width="150" height="40" rx="5" fill="#fff" stroke="#4ecdc4" stroke-width="2"/>
    <text x="150" y="285" font-family="Arial" font-size="12" text-anchor="middle" fill="#333">Content Optimization</text>
    
    <path d="M 75 280 L 50 280 L 50 100 L 75 100" stroke="#333" stroke-width="2" fill="none" marker-end="url(#arrowhead10)" stroke-dasharray="5,5"/>
    <text x="45" y="190" font-family="Arial" font-size="10" text-anchor="middle" fill="#666" transform="rotate(-90 45,190)">Continuous Improvement</text>
    
    <rect x="75" y="320" width="150" height="40" rx="5" fill="#fff" stroke="#ffe66d" stroke-width="2"/>
    <text x="150" y="345" font-family="Arial" font-size="12" text-anchor="middle" fill="#333">SEO Re-targeting</text>
    
    <path d="M 150 300 L 150 320" stroke="#333" stroke-width="2" fill="none" marker-end="url(#arrowhead10)"/>
</svg>