<?xml version="1.0" encoding="UTF-8" standalone="no"?>
<svg viewBox="0 0 800 500" xmlns="http://www.w3.org/2000/svg">
    <defs>
        <marker id="arrowhead7" markerWidth="10" markerHeight="7" refX="9" refY="3.5" orient="auto">
            <polygon points="0 0, 10 3.5, 0 7" fill="#333"/>
        </marker>
    </defs>
    <rect x="50" y="50" width="700" height="400" rx="10" fill="#f8f9fa" stroke="#ddd" stroke-width="2"/>
    
    <!-- Browser mockup -->
    <rect x="100" y="100" width="600" height="300" rx="5" fill="#fff" stroke="#ddd" stroke-width="2"/>
    
    <!-- Browser header -->
    <rect x="100" y="100" width="600" height="30" rx="5 5 0 0" fill="#f0f0f0" stroke="#ddd" stroke-width="1"/>
    <circle cx="120" cy="115" r="5" fill="#ff6b6b"/>
    <circle cx="140" cy="115" r="5" fill="#ffe66d"/>
    <circle cx="160" cy="115" r="5" fill="#4ecdc4"/>
    
    <!-- Address bar -->
    <rect x="200" y="105" width="440" height="20" rx="3" fill="#fff" stroke="#ddd" stroke-width="1"/>
    <text x="210" y="120" font-family="Arial" font-size="12" fill="#666">https://wish.gifft.me/?utm_source=blog&utm_medium=cta&utm_campaign=apology</text>
    
    <!-- Content area -->
    <rect x="100" y="130" width="600" height="270" fill="#fff"/>
    
    <!-- Website header -->
    <rect x="130" y="160" width="540" height="50" rx="5" fill="#3a6ea5"/>
    <text x="200" y="192" font-family="Arial" font-size="20" fill="#fff">Send a Gift With Your Message</text>
    
    <!-- UTM parameters highlight box -->
    <rect x="130" y="320" width="540" height="60" rx="5" fill="#fff0e9" stroke="#f47c48" stroke-width="2"/>
    <text x="150" y="340" font-family="Arial" font-size="14" fill="#333" font-weight="bold">UTM Parameters Detected:</text>
    <text x="150" y="365" font-family="Arial" font-size="12" fill="#666">Source: blog | Medium: cta | Campaign: apology | Content: im-sorry-post</text>
    
    <!-- UTM tracking annotation -->
    <path d="M 400 230 L 500 230 L 500 320" stroke="#f47c48" stroke-width="2" stroke-dasharray="5,5" fill="none" marker-end="url(#arrowhead7)"/>
    <rect x="320" y="200" width="160" height="60" rx="5" fill="#fff" stroke="#ddd" stroke-width="1"/>
    <text x="400" y="230" font-family="Arial" font-size="12" text-anchor="middle" fill="#666">Tracking the user journey</text>
    <text x="400" y="250" font-family="Arial" font-size="12" text-anchor="middle" fill="#666">from blog to conversion</text>
</svg>